<svg xmlns="http://www.w3.org/2000/svg" viewBox="0 0 32 32" width="32" height="32">
  <circle cx="16" cy="16" r="15" fill="#181717"/>
  <path d="M16 5c-6 0-11 5-11 11 0 5 3.2 9.2 7.7 10.6.6.1.9-.3.9-.7v-2.5c-3.1.6-3.7-1.5-3.7-1.5-.5-1.2-1.2-1.6-1.2-1.6-1-.8.2-.8.2-.8 1.1.1 1.7 1.1 1.7 1.1 1 1.7 2.7 1.2 3.3.9.1-.7.4-1.2.7-1.5-2.6-.3-5.3-1.3-5.3-5.5 0-1.2.4-2.2 1.1-3-.2-.3-.5-1.4.1-2.9 0 0 1-.3 3.1 1.1.9-.3 1.9-.4 2.9-.4s2 .1 2.9.4c2.1-1.4 3.1-1.1 3.1-1.1.6 1.5.3 2.6.1 2.9.7.8 1.1 1.8 1.1 3 0 4.2-2.7 5.2-5.3 5.5.4.3.8 1 .8 2v3c0 .4.3.8.9.7C23.8 25.2 27 21 27 16c0-6-5-11-11-11z" fill="#fff"/>
</svg>