<svg xmlns="http://www.w3.org/2000/svg" viewBox="0 0 32 32" width="32" height="32">
  <g>
    <rect width="32" height="32" rx="6" fill="#fff"/>
    <g>
      <path d="M29.5 10.5c-.3-1.2-1.2-2.1-2.4-2.4C25.1 7.5 16 7.5 16 7.5s-9.1 0-11.1.6c-1.2.3-2.1 1.2-2.4 2.4C2 12.5 2 16 2 16s0 3.5.5 5.5c.3 1.2 1.2 2.1 2.4 2.4C6.9 24.5 16 24.5 16 24.5s9.1 0 11.1-.6c1.2-.3 2.1-1.2 2.4-2.4.5-2 .5-5.5.5-5.5s0-3.5-.5-5.5z" fill="#FF0000"/>
      <polygon points="13,11 22,16 13,21" fill="#fff"/>
    </g>
  </g>
</svg>